<svg width="8" height="4" viewBox="0 0 8 4" fill="none" xmlns="http://www.w3.org/2000/svg">
<path d="M6.96927 0.104187C7.12625 -0.0347798 7.35323 -0.0347232 7.51014 0.104322C7.71538 0.28619 7.71533 0.623279 7.51005 0.805083L4.27669 3.66855C4.21854 3.72036 4.1494 3.76147 4.07323 3.78952C3.99707 3.81758 3.91538 3.83202 3.83289 3.83202C3.7504 3.83202 3.66871 3.81758 3.59255 3.78952C3.51638 3.76147 3.44724 3.72036 3.38909 3.66855L0.153988 0.805025C-0.0513185 0.623299 -0.0513313 0.286212 0.153961 0.104468C0.310773 -0.0343574 0.537507 -0.0343684 0.694331 0.104441L3.83195 2.88165L6.96927 0.104187Z" fill="#171717"/>
</svg>
