<svg width="30" height="24" viewBox="0 0 30 24" fill="none" xmlns="http://www.w3.org/2000/svg">
<g clip-path="url(#clip0_442_7360)">
<mask id="mask0_442_7360" style="mask-type:luminance" maskUnits="userSpaceOnUse" x="0" y="0" width="30" height="24">
<path d="M30 0H0V24H30V0Z" fill="white"/>
</mask>
<g mask="url(#mask0_442_7360)">
<path d="M18.5645 5.46387L18.7363 5.5332L18.9121 5.47266L26.791 2.77246V2.77148C26.8207 2.76135 26.8569 2.75616 26.8945 2.75879C26.9323 2.76149 26.9638 2.7719 26.9854 2.7832C26.9915 2.78645 26.9963 2.79034 27 2.79297V18.6426L18.7627 21.4668L11.4355 18.5361L11.2637 18.4668L11.0879 18.5273L3.20898 21.2275C3.1792 21.2377 3.14272 21.2429 3.10449 21.2402C3.06683 21.2374 3.03597 21.228 3.01465 21.2168C3.00823 21.2134 3.00376 21.2088 3 21.2061V5.35645L11.2363 2.53223L18.5645 5.46387ZM24.8379 4.55957L19.8379 6.27441L19.5 6.38965V20.0947L20.1621 19.8682L25.1621 18.1543L25.5 18.0381V4.33301L24.8379 4.55957ZM9.83789 4.13184L4.83789 5.8457L4.5 5.96191V19.667L5.16211 19.4404L10.1621 17.7256L10.5 17.6104V3.90527L9.83789 4.13184ZM18 6.39746L17.6855 6.27148L12.6855 4.27148L12 3.99707V17.6025L12.3145 17.7285L17.3145 19.7285L18 20.0029V6.39746Z" fill="#A0A0A0" stroke="#A0A0A0"/>
</g>
</g>
<defs>
<clipPath id="clip0_442_7360">
<rect width="30" height="24" fill="white"/>
</clipPath>
</defs>
</svg>
